{"buffers":[{"uri":"Cup.bin","byteLength":58008}],"asset":{"version":"2.0","generator":"gltfpack 0.16"},"bufferViews":[{"buffer":0,"byteOffset":0,"byteLength":20256,"byteStride":12,"target":34962},{"buffer":0,"byteOffset":20256,"byteLength":20256,"byteStride":12,"target":34962},{"buffer":0,"byteOffset":40512,"byteLength":17496,"target":34963}],"accessors":[{"bufferView":0,"byteOffset":0,"componentType":5126,"count":1468,"type":"VEC3","min":[-4,-7.49175978,0],"max":[3.99178004,3.99794006,9.49619961]},{"bufferView":1,"byteOffset":0,"componentType":5126,"count":1468,"type":"VEC3"},{"bufferView":2,"byteOffset":0,"componentType":5123,"count":8100,"type":"SCALAR"},{"bufferView":0,"byteOffset":17616,"componentType":5126,"count":220,"type":"VEC3","min":[-3.5,-3.49856997,0.5],"max":[3.49429011,3.49856997,7.5]},{"bufferView":1,"byteOffset":17616,"componentType":5126,"count":220,"type":"VEC3"},{"bufferView":2,"byteOffset":16200,"componentType":5123,"count":648,"type":"SCALAR"}],"materials":[{"pbrMetallicRoughness":{"baseColorFactor":[0.972549021,0.968627453,0.929411769,0],"metallicFactor":0},"alphaMode":"BLEND","doubleSided":true},{"pbrMetallicRoughness":{"baseColorFactor":[0.600000024,0.509803951,0.368627459,1],"metallicFactor":0},"doubleSided":true}],"meshes":[{"primitives":[{"attributes":{"POSITION":0,"NORMAL":1},"mode":4,"indices":2,"material":0}]},{"primitives":[{"attributes":{"POSITION":3,"NORMAL":4},"mode":4,"indices":5,"material":1}]}],"nodes":[{"mesh":0},{"mesh":1},{"children":[0]},{"children":[1]}],"scenes":[{"nodes":[2,3]}]}