{"buffers":[{"uri":"Desk.bin","byteLength":4408904}],"asset":{"version":"2.0","generator":"gltfpack 0.16"},"bufferViews":[{"buffer":0,"byteOffset":0,"byteLength":1939872,"byteStride":12,"target":34962},{"buffer":0,"byteOffset":1939872,"byteLength":1939872,"byteStride":12,"target":34962},{"buffer":0,"byteOffset":3879744,"byteLength":223014,"target":34963},{"buffer":0,"byteOffset":4102760,"byteLength":306144,"target":34963}],"accessors":[{"bufferView":0,"byteOffset":0,"componentType":5126,"count":13768,"type":"VEC3","min":[-70.3600922,-1.85108995,-37.9906883],"max":[89.7182007,78.0832901,31.2499008]},{"bufferView":1,"byteOffset":0,"componentType":5126,"count":13768,"type":"VEC3"},{"bufferView":2,"byteOffset":0,"componentType":5123,"count":18474,"type":"SCALAR"},{"bufferView":0,"byteOffset":165216,"componentType":5126,"count":4332,"type":"VEC3","min":[33.1296005,1.35720003,-39.8285904],"max":[73.2857895,60.9870911,14.8128996]},{"bufferView":1,"byteOffset":165216,"componentType":5126,"count":4332,"type":"VEC3"},{"bufferView":2,"byteOffset":36948,"componentType":5123,"count":5268,"type":"SCALAR"},{"bufferView":0,"byteOffset":217200,"componentType":5126,"count":46001,"type":"VEC3","min":[-65.5205917,-1.30359006,-44.9459915],"max":[85.2557907,73.4900894,12.5656996]},{"bufferView":1,"byteOffset":217200,"componentType":5126,"count":46001,"type":"VEC3"},{"bufferView":2,"byteOffset":47484,"componentType":5123,"count":47757,"type":"SCALAR"},{"bufferView":0,"byteOffset":769212,"componentType":5126,"count":66689,"type":"VEC3","min":[-64.7971878,-0.810800016,-44.1238899],"max":[84.5404892,72.3622894,30.8808002]},{"bufferView":1,"byteOffset":769212,"componentType":5126,"count":66689,"type":"VEC3"},{"bufferView":3,"byteOffset":0,"componentType":5125,"count":76536,"type":"SCALAR"},{"bufferView":0,"byteOffset":1569480,"componentType":5126,"count":30866,"type":"VEC3","min":[-66.115303,-1.89059997,-43.5980911],"max":[85.8506012,78.1132889,31.2835007]},{"bufferView":1,"byteOffset":1569480,"componentType":5126,"count":30866,"type":"VEC3"},{"bufferView":2,"byteOffset":142998,"componentType":5123,"count":40008,"type":"SCALAR"}],"materials":[{"pbrMetallicRoughness":{"baseColorFactor":[0.964705884,0.964705884,0.952941179,0],"metallicFactor":0},"alphaMode":"BLEND","doubleSided":true},{"pbrMetallicRoughness":{"baseColorFactor":[0.964705884,0.964705884,0.952941179,1],"metallicFactor":0},"doubleSided":true},{"pbrMetallicRoughness":{"baseColorFactor":[0.960784316,0.960784316,0.964705884,0],"metallicFactor":0},"alphaMode":"BLEND","doubleSided":true},{"pbrMetallicRoughness":{"baseColorFactor":[0.627451003,0.627451003,0.627451003,1],"metallicFactor":0},"doubleSided":true},{"pbrMetallicRoughness":{"baseColorFactor":[0.53725493,0.53725493,0.53725493,1],"metallicFactor":0},"doubleSided":true}],"meshes":[{"primitives":[{"attributes":{"POSITION":0,"NORMAL":1},"mode":4,"indices":2,"material":0}]},{"primitives":[{"attributes":{"POSITION":3,"NORMAL":4},"mode":4,"indices":5,"material":1}]},{"primitives":[{"attributes":{"POSITION":6,"NORMAL":7},"mode":4,"indices":8,"material":2}]},{"primitives":[{"attributes":{"POSITION":9,"NORMAL":10},"mode":4,"indices":11,"material":3}]},{"primitives":[{"attributes":{"POSITION":12,"NORMAL":13},"mode":4,"indices":14,"material":4}]}],"nodes":[{"mesh":0},{"mesh":1},{"mesh":2},{"mesh":3},{"mesh":4},{"children":[0]},{"children":[1]},{"children":[2]},{"children":[3]},{"children":[4]}],"scenes":[{"nodes":[5,6,7,8,9]}]}