{"buffers":[{"uri":"Laptop.bin","byteLength":333300}],"asset":{"version":"2.0","generator":"gltfpack 0.16"},"bufferViews":[{"buffer":0,"byteOffset":0,"byteLength":131364,"byteStride":12,"target":34962},{"buffer":0,"byteOffset":131364,"byteLength":131364,"byteStride":12,"target":34962},{"buffer":0,"byteOffset":262728,"byteLength":70572,"target":34963}],"accessors":[{"bufferView":0,"byteOffset":0,"componentType":5126,"count":1687,"type":"VEC3","min":[0,0,0],"max":[30.5,27.9706898,22.1059208]},{"bufferView":1,"byteOffset":0,"componentType":5126,"count":1687,"type":"VEC3"},{"bufferView":2,"byteOffset":0,"componentType":5123,"count":8526,"type":"SCALAR"},{"bufferView":0,"byteOffset":20244,"componentType":5126,"count":9260,"type":"VEC3","min":[0,9.5,0.855549991],"max":[30.5,27.5633507,21.9386101]},{"bufferView":1,"byteOffset":20244,"componentType":5126,"count":9260,"type":"VEC3"},{"bufferView":2,"byteOffset":17052,"componentType":5123,"count":26760,"type":"SCALAR"}],"materials":[{"pbrMetallicRoughness":{"baseColorFactor":[0.960784316,0.960784316,0.964705884,1],"metallicFactor":0},"doubleSided":true},{"pbrMetallicRoughness":{"baseColorFactor":[0.0980392173,0.0980392173,0.0980392173,0],"metallicFactor":0},"alphaMode":"BLEND","doubleSided":true}],"meshes":[{"primitives":[{"attributes":{"POSITION":0,"NORMAL":1},"mode":4,"indices":2,"material":0}]},{"primitives":[{"attributes":{"POSITION":3,"NORMAL":4},"mode":4,"indices":5,"material":1}]}],"nodes":[{"mesh":0},{"mesh":1},{"children":[0]},{"children":[1]}],"scenes":[{"nodes":[2,3]}]}