{"buffers":[{"uri":"Name Plate.bin","byteLength":222288}],"asset":{"version":"2.0","generator":"gltfpack 0.16"},"bufferViews":[{"buffer":0,"byteOffset":0,"byteLength":91536,"byteStride":12,"target":34962},{"buffer":0,"byteOffset":91536,"byteLength":91536,"byteStride":12,"target":34962},{"buffer":0,"byteOffset":183072,"byteLength":39216,"target":34963}],"accessors":[{"bufferView":0,"byteOffset":0,"componentType":5126,"count":7604,"type":"VEC3","min":[-10.2499905,-1.94489002,0],"max":[10.2499905,0.0999900028,4.18579006]},{"bufferView":1,"byteOffset":0,"componentType":5126,"count":7604,"type":"VEC3"},{"bufferView":2,"byteOffset":0,"componentType":5123,"count":19572,"type":"SCALAR"},{"bufferView":0,"byteOffset":91248,"componentType":5126,"count":24,"type":"VEC3","min":[-10.2499905,-1.73040998,0.181189999],"max":[10.2499905,-0.596509993,3.91105008]},{"bufferView":1,"byteOffset":91248,"componentType":5126,"count":24,"type":"VEC3"},{"bufferView":2,"byteOffset":39144,"componentType":5123,"count":36,"type":"SCALAR"}],"materials":[{"pbrMetallicRoughness":{"baseColorFactor":[0.960784316,0.960784316,0.964705884,0],"metallicFactor":0},"alphaMode":"BLEND","doubleSided":true},{"pbrMetallicRoughness":{"baseColorFactor":[0.247058824,0.247058824,0.247058824,1],"metallicFactor":0},"doubleSided":true}],"meshes":[{"primitives":[{"attributes":{"POSITION":0,"NORMAL":1},"mode":4,"indices":2,"material":0}]},{"primitives":[{"attributes":{"POSITION":3,"NORMAL":4},"mode":4,"indices":5,"material":1}]}],"nodes":[{"mesh":0},{"mesh":1},{"children":[0]},{"children":[1]}],"scenes":[{"nodes":[2,3]}]}